<?xml version="1.0" encoding="UTF-8" standalone="no"?>
<!-- Svg Vector Icons : http://www.onlinewebfonts.com/icon -->

<svg
   version="1.1"
   x="0px"
   y="0px"
   viewBox="0 0 40.000004 40.000004"
   enable-background="new 0 0 1000 1000"
   xml:space="preserve"
   id="svg3522"
   sodipodi:docname="contacts.svg"
   width="40.000004"
   height="40.000004"
   inkscape:version="1.2.2 (732a01da63, 2022-12-09)"
   xmlns:inkscape="http://www.inkscape.org/namespaces/inkscape"
   xmlns:sodipodi="http://sodipodi.sourceforge.net/DTD/sodipodi-0.dtd"
   xmlns="http://www.w3.org/2000/svg"
   xmlns:svg="http://www.w3.org/2000/svg"><defs
   id="defs3526" /><sodipodi:namedview
   id="namedview3524"
   pagecolor="#ffffff"
   bordercolor="#000000"
   borderopacity="0.25"
   inkscape:showpageshadow="2"
   inkscape:pageopacity="0.0"
   inkscape:pagecheckerboard="0"
   inkscape:deskcolor="#d1d1d1"
   showgrid="false"
   inkscape:zoom="1.139"
   inkscape:cx="489.90342"
   inkscape:cy="490.34241"
   inkscape:window-width="2560"
   inkscape:window-height="1368"
   inkscape:window-x="-8"
   inkscape:window-y="-8"
   inkscape:window-maximized="1"
   inkscape:current-layer="svg3522" />
<metadata
   id="metadata3514"> Svg Vector Icons : http://www.onlinewebfonts.com/icon </metadata>
<g
   id="g3520"
   transform="matrix(0.04081633,0,0,0.04081633,-0.4081633,-0.4081633)"><path
     d="M 500,10 C 229.4,10 10,229.4 10,500 10,770.6 229.4,990 500,990 770.6,990 990,770.6 990,500 990,229.4 770.6,10 500,10 Z m 0,949.4 C 246.3,959.4 40.6,753.7 40.6,500 40.6,246.3 246.3,40.6 500,40.6 753.7,40.6 959.4,246.3 959.4,500 959.4,753.7 753.7,959.4 500,959.4 Z"
     id="path3516" /><path
     d="m 442.3,557.7 c 19.9,20 47.9,37.6 47.9,37.6 0,0 35.3,26.1 61.3,10.3 55.7,-34.1 54.4,-45.9 81.7,-30.6 95.4,53.3 91.4,88.7 89,97.4 -9.5,34.2 -71.9,62 -140,45 -68.4,-17 -136.9,-53 -192,-107.7 -54.7,-55 -90.8,-123.4 -107.8,-191.7 -17,-68 10.8,-130.2 45.1,-139.8 8.7,-2.4 44.2,-6.3 97.6,88.8 15.3,27.4 3.5,26.1 -30.6,81.7 -16,26 10.2,61.2 10.2,61.2 0,0 17.8,27.8 37.6,47.8 z"
     id="path3518" /></g>
</svg>
