<?xml version="1.0" encoding="UTF-8" standalone="no"?>
<!-- Uploaded to: SVG Repo, www.svgrepo.com, Generator: SVG Repo Mixer Tools -->

<svg
   height="30"
   width="30"
   version="1.1"
   id="Layer_1"
   viewBox="0 0 19.200037 19.200037"
   xml:space="preserve"
   sodipodi:docname="email.svg"
   inkscape:version="1.2.2 (732a01da63, 2022-12-09)"
   xmlns:inkscape="http://www.inkscape.org/namespaces/inkscape"
   xmlns:sodipodi="http://sodipodi.sourceforge.net/DTD/sodipodi-0.dtd"
   xmlns="http://www.w3.org/2000/svg"
   xmlns:svg="http://www.w3.org/2000/svg"><defs
   id="defs286"><linearGradient
     id="linearGradient3576"
     inkscape:swatch="solid"><stop
       style="stop-color:#000000;stop-opacity:1;"
       offset="0"
       id="stop3574" /></linearGradient></defs><sodipodi:namedview
   id="namedview284"
   pagecolor="#ffffff"
   bordercolor="#000000"
   borderopacity="0.25"
   inkscape:showpageshadow="2"
   inkscape:pageopacity="0.0"
   inkscape:pagecheckerboard="0"
   inkscape:deskcolor="#d1d1d1"
   showgrid="false"
   inkscape:zoom="23.26"
   inkscape:cx="14.531384"
   inkscape:cy="16.358555"
   inkscape:window-width="2560"
   inkscape:window-height="1368"
   inkscape:window-x="-8"
   inkscape:window-y="-8"
   inkscape:window-maximized="1"
   inkscape:current-layer="Layer_1" />
<path
   style="fill:#ef9364;stroke-width:0.03870244;stroke-dasharray:none"
   d="m 19.200037,9.6002437 c 0,5.3023233 -4.297733,9.5999433 -9.5998683,9.5997933 C 4.2976959,19.200187 1.57041e-8,14.902604 1.57041e-8,9.6002437 -2.9998489e-4,4.2978834 4.2976959,0 9.6001687,0 14.902304,0 19.200037,4.2980334 19.200037,9.6002437 Z"
   id="path277" />

<path
   style="fill:#f4f6f9;stroke:none;stroke-width:4.8378;stroke-dasharray:none;stroke-opacity:1;paint-order:markers stroke fill"
   d="M 14.548866,5.2046972 H 4.5856595 c -0.8400391,0 -1.6941321,0.7634406 -1.6954469,1.5497035 l -0.00973,5.8176633 c -0.00127,0.762413 0.6282342,1.498462 1.419298,1.497725 l 10.4500715,-0.0097 c 0.817577,-7.61e-4 1.55997,-0.839258 1.55997,-1.565822 V 6.7544007 c -3.7e-5,-0.774339 -0.889756,-1.5497035 -1.760958,-1.5497035 z m -0.0033,0.8067895 c 0.150075,0 0.407963,0.026363 0.610464,0.1595628 L 9.8211567,10.460308 4.0278829,6.151137 C 4.1635581,6.060087 4.3464835,6.0114867 4.5822839,6.0114867 Z m 0.902477,6.4341503 c 0,0.487763 -0.454014,0.742914 -0.90244,0.742914 H 4.5429839 c -0.4952635,0 -0.7909516,-0.277763 -0.7909516,-0.742914 V 6.7544007 c 0,-0.04905 -0.053488,-0.015963 -0.04798,-0.060213 l 5.9065611,4.3932073 c 0.047138,0.03503 0.161306,0.09135 0.2169561,0.09135 0.059025,0 0.1471969,-0.03918 0.1957215,-0.07815 l 5.438673,-4.3727732 c 0.0057,0.040725 -0.01396,-0.019693 -0.01396,0.026545 v 5.6912742 z"
   id="path281"
   sodipodi:nodetypes="ssssssscsscccsscssssccsccscc" />
</svg>
