<?xml version="1.0" encoding="UTF-8" standalone="no"?>
<!-- Uploaded to: SVG Repo, www.svgrepo.com, Generator: SVG Repo Mixer Tools -->

<svg
   height="30"
   width="30"
   version="1.1"
   id="Layer_1"
   viewBox="0 0 19.200037 19.200037"
   xml:space="preserve"
   sodipodi:docname="email.svg"
   inkscape:version="1.2.2 (732a01da63, 2022-12-09)"
   xmlns:inkscape="http://www.inkscape.org/namespaces/inkscape"
   xmlns:sodipodi="http://sodipodi.sourceforge.net/DTD/sodipodi-0.dtd"
   xmlns="http://www.w3.org/2000/svg"
   xmlns:svg="http://www.w3.org/2000/svg"><defs
   id="defs286" /><sodipodi:namedview
   id="namedview284"
   pagecolor="#ffffff"
   bordercolor="#000000"
   borderopacity="0.25"
   inkscape:showpageshadow="2"
   inkscape:pageopacity="0.0"
   inkscape:pagecheckerboard="0"
   inkscape:deskcolor="#d1d1d1"
   showgrid="false"
   inkscape:zoom="1.45375"
   inkscape:cx="400"
   inkscape:cy="400.68788"
   inkscape:window-width="2560"
   inkscape:window-height="1368"
   inkscape:window-x="-8"
   inkscape:window-y="-8"
   inkscape:window-maximized="1"
   inkscape:current-layer="Layer_1" />
<path
   style="fill:#ffcd54;stroke-width:0.0375001"
   d="m 19.200037,9.6002437 c 0,5.3023233 -4.297733,9.5999433 -9.5998683,9.5997933 C 4.2976959,19.200187 1.57041e-8,14.902604 1.57041e-8,9.6002437 -2.9998489e-4,4.2978834 4.2976959,0 9.6001687,0 14.902304,0 19.200037,4.2980334 19.200037,9.6002437 Z"
   id="path277" />

<path
   style="fill:#f4f6f9;stroke-width:0.0375001"
   d="M 14.545528,5.4798482 H 4.5823214 c -0.8400391,0 -1.3619276,0.4882885 -1.3619276,1.2745525 v 5.6911983 c 0,0.762414 0.531526,1.274553 1.3225901,1.274553 H 14.545565 c 0.817577,0 1.434078,-0.547989 1.434078,-1.274553 V 6.7544007 C 15.979606,5.9800617 15.41673,5.4798482 14.545528,5.4798482 Z m 0,0.5316385 c 0.150075,0 0.407963,0.026363 0.610464,0.1595628 L 9.8211567,10.460308 4.0278829,6.151137 C 4.1635581,6.060087 4.3464835,6.0114867 4.5822839,6.0114867 Z m 0.902477,6.4341503 c 0,0.487763 -0.454014,0.742914 -0.90244,0.742914 H 4.5429839 c -0.4952635,0 -0.7909516,-0.277763 -0.7909516,-0.742914 V 6.7544007 c 0,-0.04905 0.00488,-0.093788 0.010388,-0.1380378 l 5.9065611,4.3932081 c 0.047138,0.03503 0.1029377,0.05243 0.1585878,0.05243 0.059025,0 0.1180127,-0.01972 0.1665378,-0.05869 L 15.43278,6.6305379 c 0.0057,0.040725 0.01522,0.077588 0.01522,0.1238253 v 5.6912738 z"
   id="path281" />
</svg>
