<?xml version="1.0" encoding="UTF-8" standalone="no"?>
<svg
   width="44.367367"
   zoomAndPan="magnify"
   viewBox="0 0 33.275526 48.749996"
   height="65"
   preserveAspectRatio="xMidYMid"
   version="1.0"
   id="svg3615"
   sodipodi:docname="logo-furniture.svg"
   inkscape:version="1.2.2 (732a01da63, 2022-12-09)"
   xmlns:inkscape="http://www.inkscape.org/namespaces/inkscape"
   xmlns:sodipodi="http://sodipodi.sourceforge.net/DTD/sodipodi-0.dtd"
   xmlns="http://www.w3.org/2000/svg"
   xmlns:svg="http://www.w3.org/2000/svg">
  <sodipodi:namedview
     id="namedview3617"
     pagecolor="#ffffff"
     bordercolor="#000000"
     borderopacity="0.25"
     inkscape:showpageshadow="2"
     inkscape:pageopacity="0.0"
     inkscape:pagecheckerboard="0"
     inkscape:deskcolor="#d1d1d1"
     showgrid="false"
     inkscape:zoom="2.278"
     inkscape:cx="15.803336"
     inkscape:cy="64.749781"
     inkscape:window-width="2560"
     inkscape:window-height="1368"
     inkscape:window-x="-8"
     inkscape:window-y="-8"
     inkscape:window-maximized="1"
     inkscape:current-layer="svg3615" />
  <defs
     id="defs3543">
    <g
       id="g3541" />
  </defs>
  <rect
     x="2.2314813"
     width="29.427467"
     fill="#ffffff"
     y="1.9411856"
     height="43.025627"
     fill-opacity="1"
     id="rect3547"
     style="fill:none;stroke-width:0.0790649" />
  <rect
     x="1.3877788e-17"
     width="33.275524"
     fill="#000000"
     y="0"
     height="48.75"
     fill-opacity="1"
     id="rect3549"
     style="fill:none;stroke-width:0.0895184" />
  <g
     fill="#ffffff"
     fill-opacity="1"
     id="g3557"
     transform="matrix(0.28483603,0,0,0.28483603,-36.226936,-37.642655)">
    <g
       transform="translate(146.76588,284.21687)"
       id="g3555">
      <g
         id="g3553">
        <path
           d="m 6.011719,-2.042969 c 2.457031,-0.929687 4.273437,-3.429687 3.285156,-6.03125 -0.890625,-2.351562 -3.402344,-2.449219 -6.0625,-2.488281 -2.046875,-0.05859 -4.488281,-0.03516 -5.230469,-1.992188 -0.671875,-1.769531 0.394532,-3.292968 2.0781252,-3.933593 2.3749998,-0.898438 4.3203128,-0.160157 5.7812498,1.359375 l 0.183594,-0.140625 -1,-2.386719 c -0.976563,-0.128906 -2.527344,-0.136719 -4.421875,0.582031 -3.0625,1.160157 -4.496094,3.46875 -3.574219,5.902344 0.835938,2.207031 2.730469,2.492187 5.558594,2.539063 2.015625,0.042968 4.941406,0.03125 5.730469,2.113281 0.640625,1.6875 -0.386719,3.3125 -2.050782,3.945312 -2.894531,1.097657 -5.179687,-0.15625 -6.820312,-2.035156 L -0.746094,-4.480469 0.457031,-1.625 c 1.246094,0.335938 3.371094,0.414062 5.554688,-0.417969 z m 0,0"
           id="path3551" />
      </g>
    </g>
  </g>
  <g
     fill="#ffffff"
     fill-opacity="1"
     id="g3565"
     transform="matrix(0.28483603,0,0,0.28483603,-36.226936,-37.642655)"
     style="fill:#ffffff">
    <g
       transform="translate(159.02553,279.6232)"
       id="g3563"
       style="fill:#ffffff">
      <g
         id="g3561"
         style="fill:#ffffff">
        <path
           d="m 4.324219,-0.972656 3.539062,-0.796875 -0.0625,-0.285157 c -0.71875,-0.042968 -1.027343,-0.5 -1.425781,-2.28125 L 3.648438,-16.433594 4.667969,-16.664062 C 6.625,-17.105469 7.589844,-16.773438 8.679688,-15.375 l 0.230468,-0.09766 -0.667968,-2.359375 -11.1875,2.519531 0.40625,2.417969 0.25,-0.01172 c 0.386718,-1.730469 1.117187,-2.441406 3.070312,-2.882812 l 1.066406,-0.238282 2.722656,12.097656 c 0.402344,1.78125 0.320313,2.328126 -0.3125,2.671876 z m 0,0"
           id="path3559"
           style="fill:#ffffff" />
      </g>
    </g>
  </g>
  <g
     fill="#ffffff"
     fill-opacity="1"
     id="g3573"
     transform="matrix(0.28483603,0,0,0.28483603,-36.226936,-37.642655)"
     style="fill:#ffffff">
    <g
       transform="translate(171.91168,276.67603)"
       id="g3571"
       style="fill:#ffffff">
      <g
         id="g3569"
         style="fill:#ffffff">
        <path
           d="m 8.035156,-0.308594 c 3.089844,-0.207031 5.421875,-2.058594 5.125,-6.523437 l -0.453125,-6.800781 c -0.121093,-1.820313 0.06641,-2.347657 0.722657,-2.589844 l -0.01953,-0.289063 -2.753906,0.183594 0.01563,0.289063 c 0.996094,0.199218 1.570313,0.789062 1.738281,3.320312 l 0.398438,5.976562 C 13.097656,-2.386719 10.625,-0.949219 8.714844,-0.824219 5.828125,-0.632812 3.441406,-1.96875 3.164062,-6.101562 L 2.710938,-12.96875 c -0.121094,-1.820312 0.066406,-2.347656 0.71875,-2.589844 l -0.019532,-0.289062 -3.597656,0.238281 0.019531,0.289063 c 0.699219,0.15625 0.933594,0.652343 1.054688,2.472656 l 0.464843,7 c 0.296876,4.464844 3.507813,5.7499998 6.683594,5.539062 z m 0,0"
           id="path3567"
           style="fill:#ffffff" />
      </g>
    </g>
  </g>
  <g
     fill="#ffffff"
     fill-opacity="1"
     id="g3581"
     transform="matrix(0.28483603,0,0,0.28483603,-36.226936,-37.642655)"
     style="fill:#ffffff">
    <g
       transform="translate(187.64034,275.64252)"
       id="g3579"
       style="fill:#ffffff">
      <g
         id="g3577"
         style="fill:#ffffff">
        <path
           d="m 1.128906,0.121094 5.800782,0.625 c 4.871093,0.523437 8.378906,-2.5 8.859374,-7.175782 0.363282,-3.589843 -1.609374,-7.71875 -7.699218,-8.375 L 2.800781,-15.375 l -0.03125,0.285156 c 0.640625,0.273438 0.808594,0.804688 0.613281,2.621094 l -1.066406,9.875 c -0.195312,1.816406 -0.46875,2.300781 -1.15625,2.425781 z m 2.910156,-1.65625 1.425782,-13.21875 1.503906,0.164062 c 4.9375,0.53125 7.1875,4.402344 6.710938,8.828125 -0.5,4.628907 -2.882813,6.589844 -6.757813,6.171875 L 5.304688,0.234375 c -1.21875,-0.128906 -1.375,-0.730469 -1.265626,-1.769531 z m 0,0"
           id="path3575"
           style="fill:#ffffff" />
      </g>
    </g>
  </g>
  <g
     fill="#ffffff"
     fill-opacity="1"
     id="g3589"
     transform="matrix(0.28483603,0,0,0.28483603,-36.226936,-37.642655)"
     style="fill:#ffffff">
    <g
       transform="translate(204.52461,277.84683)"
       id="g3587"
       style="fill:#ffffff">
      <g
         id="g3585"
         style="fill:#ffffff">
        <path
           d="M 1.105469,0.265625 4.613281,1.101562 4.679688,0.820312 C 4.054688,0.464844 3.980469,-0.078125 4.402344,-1.855469 l 2.308594,-9.660156 c 0.425781,-1.773437 0.738281,-2.226563 1.457031,-2.261719 l 0.066406,-0.28125 -3.507813,-0.835937 -0.066406,0.28125 c 0.601563,0.347656 0.699219,0.898437 0.277344,2.675781 l -2.308594,9.65625 c -0.425781,1.777344 -0.761718,2.2226562 -1.457031,2.265625 z m 0,0"
           id="path3583"
           style="fill:#ffffff" />
      </g>
    </g>
  </g>
  <g
     fill="#ffffff"
     fill-opacity="1"
     id="g3597"
     transform="matrix(0.28483603,0,0,0.28483603,-36.226936,-37.642655)"
     style="fill:#ffffff">
    <g
       transform="translate(211.1749,279.06633)"
       id="g3595"
       style="fill:#ffffff">
      <g
         id="g3593"
         style="fill:#ffffff">
        <path
           d="m 8.382812,3.507812 c 3.488282,1.359376 8.234376,0.582032 10.234376,-4.542968 1.980468,-5.085938 -0.921876,-8.988282 -4.425782,-10.355469 -4.398437,-1.714844 -8.617187,0.277344 -10.273437,4.527344 -2.007813,5.148437 0.9375,8.996093 4.464843,10.371093 z M 6.046875,-7.417969 c 1.191406,-3.429687 3.953125,-5.054687 7.105469,-3.824219 3.714844,1.445313 4.855468,6.550782 3.3125,10.945313 -1.109375,3.152344 -3.6875,4.917969 -7.007813,3.625 C 5.742188,1.878906 4.566406,-3.191406 6.046875,-7.417969 Z m 0,0"
           id="path3591"
           style="fill:#ffffff" />
      </g>
    </g>
  </g>
  <g
     fill="#ffffff"
     fill-opacity="1"
     id="g3605"
     transform="matrix(0.28483603,0,0,0.28483603,-36.226936,-37.642655)"
     style="fill:#ffffff">
    <g
       transform="translate(152.25286,201.87527)"
       id="g3603"
       style="fill:#ffffff">
      <g
         id="g3601"
         style="fill:#ffffff">
        <path
           d="M 4.109375,0 H 41.59375 l 0.566406,-9.109375 -0.886718,-0.160156 c -2.824219,6.046875 -6.371094,7.980469 -14.109376,7.980469 h -9.589843 c -2.339844,0 -3.628907,-1.289063 -3.628907,-3.628907 v -41.273437 c 0,-6.609375 0.726563,-8.460938 3.226563,-9.1875 v -1.046875 h -13.0625 v 1.046875 c 2.421875,0.726562 3.226563,2.578125 3.226563,9.1875 v 35.953125 c 0,6.609375 -0.804688,8.464843 -3.226563,9.191406 z m 0,0"
           id="path3599"
           style="fill:#ffffff" />
      </g>
    </g>
  </g>
  <g
     fill="#ffffff"
     fill-opacity="1"
     id="g3613"
     transform="matrix(0.28483603,0,0,0.28483603,-36.226936,-37.642655)"
     style="fill:#ffffff">
    <g
       transform="translate(187.49999,229.69143)"
       id="g3611"
       style="fill:#ffffff">
      <g
         id="g3609"
         style="fill:#ffffff">
        <path
           d="M 0.402344,-1.128906 V 0 H 35.789062 L 37,-11.285156 l -0.804688,-0.08203 c -1.453124,4.433594 -3.144531,5.964844 -11.125,5.964844 H 6.691406 c 9.832032,-8.703125 28.617188,-23.375 28.535156,-38.609375 -0.08203,-8.222656 -5.964843,-12.980469 -13.058593,-12.980469 -7.175781,0 -12.496094,3.707032 -16.929688,9.027344 l 0.644531,0.726563 c 3.386719,-3.789063 7.660157,-5.5625 11.851563,-5.5625 6.207031,0 10.316406,4.113281 10.316406,10.804687 0,15.074219 -16.523437,30.144532 -27.648437,40.867188 z m 0,0"
           id="path3607"
           style="fill:#ffffff" />
      </g>
    </g>
  </g>
</svg>
