<?xml version="1.0" encoding="UTF-8" standalone="no"?>
<!-- Uploaded to: SVG Repo, www.svgrepo.com, Generator: SVG Repo Mixer Tools -->

<svg
   width="20.00001"
   height="19.999964"
   viewBox="0 0 0.60000029 0.59999891"
   fill="none"
   version="1.1"
   id="svg5402"
   sodipodi:docname="phone-contacts.svg"
   inkscape:version="1.2.2 (732a01da63, 2022-12-09)"
   xmlns:inkscape="http://www.inkscape.org/namespaces/inkscape"
   xmlns:sodipodi="http://sodipodi.sourceforge.net/DTD/sodipodi-0.dtd"
   xmlns="http://www.w3.org/2000/svg"
   xmlns:svg="http://www.w3.org/2000/svg">
  <defs
     id="defs5406" />
  <sodipodi:namedview
     id="namedview5404"
     pagecolor="#ffffff"
     bordercolor="#000000"
     borderopacity="0.25"
     inkscape:showpageshadow="2"
     inkscape:pageopacity="0.0"
     inkscape:pagecheckerboard="0"
     inkscape:deskcolor="#d1d1d1"
     showgrid="false"
     inkscape:zoom="1.42375"
     inkscape:cx="399.64881"
     inkscape:cy="400"
     inkscape:window-width="2560"
     inkscape:window-height="1368"
     inkscape:window-x="-8"
     inkscape:window-y="-8"
     inkscape:window-maximized="1"
     inkscape:current-layer="svg5402" />
  <path
     d="m 0.37692439,0.13076775 c 0.022683,0.00443 0.045196,0.014428 0.061538,0.030769 0.016341,0.016341 0.026344,0.038856 0.030769,0.061538 m -0.076923,-0.199998 c 0.047123,0.00524 0.089528,0.028033 0.1230755,0.061538 0.033547,0.033505 0.056242,0.075959 0.061538,0.1230755 m -1.54e-5,0.2300497 v 0.083374 c 1.292e-4,0.031874 -0.028529,0.058489 -0.060707,0.055584 -0.2777322,2.185e-4 -0.4931156,-0.2171637 -0.492898,-0.4930316 -0.0029,-0.032007 0.023585,-0.060557 0.055416,-0.060587 h 0.083542 c 0.013514,-1.329e-4 0.026616,0.00464 0.036863,0.013438 0.029132,0.025004 0.047871,0.1098735 0.040662,0.1436119 -0.00563,0.026341 -0.032182,0.044769 -0.050235,0.062785 0.039642,0.069581 0.097366,0.1271893 0.1670824,0.166755 0.018052,-0.018018 0.03652,-0.044516 0.06291,-0.050135 0.033858,-0.00721 0.1192724,0.011557 0.1441768,0.040892 0.00883,0.010403 0.013526,0.023683 0.013187,0.037313 z"
     stroke="#000000"
     stroke-width="0.0461533"
     stroke-linecap="round"
     stroke-linejoin="round"
     id="path5400"
     style="display:inline;fill:none;stroke:#ffffff" />
</svg>
