<?xml version="1.0" encoding="UTF-8" standalone="no"?>
<!-- Uploaded to: SVG Repo, www.svgrepo.com, Generator: SVG Repo Mixer Tools -->

<svg
   height="30"
   width="30"
   version="1.1"
   viewBox="0 0 2.4 2.4"
   xml:space="preserve"
   id="svg362"
   sodipodi:docname="phone.svg"
   inkscape:version="1.2.2 (732a01da63, 2022-12-09)"
   xmlns:inkscape="http://www.inkscape.org/namespaces/inkscape"
   xmlns:sodipodi="http://sodipodi.sourceforge.net/DTD/sodipodi-0.dtd"
   xmlns="http://www.w3.org/2000/svg"
   xmlns:svg="http://www.w3.org/2000/svg"><defs
   id="defs366" /><sodipodi:namedview
   id="namedview364"
   pagecolor="#ffffff"
   bordercolor="#000000"
   borderopacity="0.25"
   inkscape:showpageshadow="2"
   inkscape:pageopacity="0.0"
   inkscape:pagecheckerboard="0"
   inkscape:deskcolor="#d1d1d1"
   showgrid="false"
   inkscape:zoom="1.45375"
   inkscape:cx="400"
   inkscape:cy="400.68788"
   inkscape:window-width="2560"
   inkscape:window-height="1368"
   inkscape:window-x="-8"
   inkscape:window-y="-8"
   inkscape:window-maximized="1"
   inkscape:current-layer="svg362" />
<style
   type="text/css"
   id="style342">
	.st0{fill:#77B3D4;}
	.st1{opacity:0.2;}
	.st2{fill:#231F20;}
	.st3{fill:#FFFFFF;}
</style>
<g
   id="Layer_1"
   transform="scale(0.0375)">
	<g
   id="g346">
		<circle
   class="st0"
   cx="32"
   cy="32"
   r="32"
   id="circle344" />
	</g>
	<g
   class="st1"
   id="g352">
		<g
   id="g350">
			<path
   class="st2"
   d="M 29,25.3 C 28.6,20.5 23.6,18.2 23.4,18.1 23.1,18 22.9,18 22.7,18 c -5.8,1 -6.6,4.3 -6.7,4.5 0,0.2 0,0.4 0,0.6 6.9,21.4 21.2,25.3 25.9,26.6 0.4,0.1 0.7,0.2 0.9,0.3 0.1,0 0.2,0.1 0.3,0.1 0.2,0 0.3,0 0.5,-0.1 0.1,-0.1 3.5,-1.7 4.4,-6.9 0,-0.2 0,-0.5 -0.1,-0.7 -0.1,-0.1 -1.9,-3.5 -6.8,-4.7 -0.3,-0.1 -0.7,0 -1,0.2 -1.6,1.3 -3.7,2.7 -4.6,2.9 -6.2,-3 -9.7,-8.9 -9.8,-10 C 25.6,30.2 27,28 28.7,26.2 28.9,26 29,25.6 29,25.3 Z"
   id="path348" />
		</g>
	</g>
	<g
   id="g358">
		<g
   id="g356">
			<path
   class="st3"
   d="M 29,23.3 C 28.6,18.5 23.6,16.2 23.4,16.1 23.1,16 22.9,16 22.7,16 c -5.8,1 -6.6,4.3 -6.7,4.5 0,0.2 0,0.4 0,0.6 6.9,21.4 21.2,25.3 25.9,26.6 0.4,0.1 0.7,0.2 0.9,0.3 0.1,0 0.2,0.1 0.3,0.1 0.2,0 0.3,0 0.5,-0.1 0.1,-0.1 3.5,-1.7 4.4,-6.9 0,-0.2 0,-0.5 -0.1,-0.7 -0.1,-0.1 -1.9,-3.5 -6.8,-4.7 -0.3,-0.1 -0.7,0 -1,0.2 -1.6,1.3 -3.7,2.7 -4.6,2.9 -6.2,-3 -9.7,-8.9 -9.8,-10 C 25.6,28.2 27,26 28.7,24.2 28.9,24 29,23.6 29,23.3 Z"
   id="path354" />
		</g>
	</g>
</g>
<g
   id="Layer_2"
   transform="scale(0.0375)">
</g>
</svg>
