<?xml version="1.0" encoding="UTF-8" standalone="no"?>
<!-- Uploaded to: SVG Repo, www.svgrepo.com, Generator: SVG Repo Mixer Tools -->

<svg
   fill="#000000"
   height="29.375038"
   width="30"
   version="1.1"
   id="Layer_1"
   viewBox="0 0 19.2 18.800024"
   xml:space="preserve"
   sodipodi:docname="projects-arrow.svg"
   inkscape:version="1.2.2 (732a01da63, 2022-12-09)"
   xmlns:inkscape="http://www.inkscape.org/namespaces/inkscape"
   xmlns:sodipodi="http://sodipodi.sourceforge.net/DTD/sodipodi-0.dtd"
   xmlns="http://www.w3.org/2000/svg"
   xmlns:svg="http://www.w3.org/2000/svg"><defs
   id="defs1074" /><sodipodi:namedview
   id="namedview1072"
   pagecolor="#ffffff"
   bordercolor="#000000"
   borderopacity="0.25"
   inkscape:showpageshadow="2"
   inkscape:pageopacity="0.0"
   inkscape:pagecheckerboard="0"
   inkscape:deskcolor="#d1d1d1"
   showgrid="false"
   inkscape:zoom="1.42375"
   inkscape:cx="399.64881"
   inkscape:cy="400"
   inkscape:window-width="2560"
   inkscape:window-height="1368"
   inkscape:window-x="-8"
   inkscape:window-y="-8"
   inkscape:window-maximized="1"
   inkscape:current-layer="Layer_1" />
<g
   id="g1069"
   transform="matrix(0.0375,0,0,0.0375,0,-0.1999875)">
	<g
   id="g1067">
		<g
   id="g1065">
			<path
   d="M 256,5.333 C 114.88,5.333 0,117.76 0,256 0,394.24 114.88,506.667 256,506.667 397.12,506.667 512,394.24 512,256 512,117.76 397.12,5.333 256,5.333 Z m 0,480 C 126.613,485.333 21.333,382.4 21.333,256 21.333,129.6 126.613,26.667 256,26.667 c 129.387,0 234.667,102.826 234.667,229.333 0,126.507 -105.28,229.333 -234.667,229.333 z"
   id="path1061" />
			<path
   d="M 369.28,247.467 187.627,114.027 c -4.693,-3.627 -11.307,-2.773 -14.933,1.92 -3.627,4.693 -2.773,11.307 1.92,14.933 0.107,0.107 0.32,0.213 0.427,0.32 L 344.96,256 175.04,380.693 c -4.8,3.52 -5.76,10.133 -2.24,14.933 3.52,4.8 10.133,5.76 14.933,2.24 L 369.387,264.64 c 4.8,-3.52 5.76,-10.133 2.24,-14.933 -0.747,-0.854 -1.494,-1.6 -2.347,-2.24 z"
   id="path1063" />
		</g>
	</g>
</g>
</svg>
