<?xml version="1.0" encoding="UTF-8" standalone="no"?>
<!-- Uploaded to: SVG Repo, www.svgrepo.com, Generator: SVG Repo Mixer Tools -->

<svg
   height="30.000002"
   width="30.000002"
   version="1.1"
   id="Layer_1"
   viewBox="0 0 19.200001 19.200001"
   xml:space="preserve"
   sodipodi:docname="viber.svg"
   inkscape:version="1.2.2 (732a01da63, 2022-12-09)"
   xmlns:inkscape="http://www.inkscape.org/namespaces/inkscape"
   xmlns:sodipodi="http://sodipodi.sourceforge.net/DTD/sodipodi-0.dtd"
   xmlns="http://www.w3.org/2000/svg"
   xmlns:svg="http://www.w3.org/2000/svg"><defs
   id="defs468" /><sodipodi:namedview
   id="namedview466"
   pagecolor="#ffffff"
   bordercolor="#000000"
   borderopacity="0.25"
   inkscape:showpageshadow="2"
   inkscape:pageopacity="0.0"
   inkscape:pagecheckerboard="0"
   inkscape:deskcolor="#d1d1d1"
   showgrid="false"
   inkscape:zoom="1.45375"
   inkscape:cx="400"
   inkscape:cy="400.68788"
   inkscape:window-width="2560"
   inkscape:window-height="1368"
   inkscape:window-x="-8"
   inkscape:window-y="-8"
   inkscape:window-maximized="1"
   inkscape:current-layer="Layer_1" />
<circle
   style="fill:#6f3faa;stroke-width:0.0375"
   cx="9.6000004"
   cy="9.6000004"
   r="9.6000004"
   id="circle419" />

<g
   id="g433"
   transform="scale(0.0375)">
	<path
   style="fill:#ffffff"
   d="m 391.427,179.924 -0.084,-0.338 c -6.84,-27.653 -37.678,-57.325 -65.998,-63.498 l -0.319,-0.066 c -45.806,-8.738 -92.251,-8.738 -138.047,0 l -0.329,0.066 c -28.31,6.173 -59.149,35.847 -65.998,63.498 l -0.076,0.338 c -8.456,38.617 -8.456,77.781 0,116.398 l 0.076,0.338 c 6.558,26.472 35.099,54.782 62.362,62.567 v 30.868 c 0,11.173 13.615,16.66 21.357,8.597 l 31.275,-32.509 c 6.784,0.379 13.571,0.591 20.356,0.591 23.057,0 46.125,-2.181 69.023,-6.549 l 0.319,-0.066 c 28.32,-6.173 59.158,-35.847 65.998,-63.498 l 0.084,-0.338 c 8.456,-38.618 8.456,-77.78 0.001,-116.399 z m -24.751,110.799 c -4.567,18.041 -27.981,40.469 -46.585,44.613 -24.355,4.632 -48.904,6.611 -73.428,5.932 -0.488,-0.014 -0.957,0.176 -1.296,0.526 -3.481,3.572 -22.835,23.442 -22.835,23.442 l -24.288,24.928 c -1.776,1.852 -4.896,0.591 -4.896,-1.964 v -51.136 c 0,-0.845 -0.603,-1.562 -1.433,-1.726 -0.005,-0.002 -0.009,-0.002 -0.014,-0.003 -18.604,-4.144 -42.01,-26.572 -46.585,-44.613 -7.611,-34.906 -7.611,-70.292 0,-105.198 4.575,-18.041 27.981,-40.469 46.585,-44.613 42.536,-8.09 85.664,-8.09 128.191,0 18.613,4.144 42.018,26.572 46.585,44.613 7.619,34.907 7.619,70.293 -0.001,105.199 z"
   id="path423" />
	<path
   style="fill:#ffffff"
   d="m 296.47,314.327 c -2.86,-0.869 -5.585,-1.452 -8.118,-2.501 -26.231,-10.883 -50.371,-24.923 -69.492,-46.444 -10.874,-12.238 -19.385,-26.055 -26.579,-40.677 -3.412,-6.934 -6.287,-14.139 -9.218,-21.299 -2.672,-6.528 1.264,-13.272 5.408,-18.192 3.889,-4.617 8.894,-8.149 14.314,-10.754 4.23,-2.032 8.402,-0.86 11.492,2.725 6.678,7.752 12.814,15.9 17.78,24.886 3.055,5.527 2.217,12.283 -3.32,16.044 -1.346,0.914 -2.572,1.988 -3.825,3.02 -1.1,0.905 -2.134,1.819 -2.888,3.044 -1.377,2.241 -1.443,4.886 -0.557,7.323 6.827,18.761 18.334,33.351 37.219,41.21 3.022,1.257 6.056,2.72 9.538,2.315 5.83,-0.681 7.718,-7.077 11.804,-10.418 3.993,-3.265 9.097,-3.308 13.398,-0.586 4.303,2.724 8.473,5.646 12.619,8.601 4.07,2.9 8.121,5.735 11.874,9.042 3.61,3.179 4.853,7.349 2.82,11.662 -3.72,7.901 -9.135,14.472 -16.944,18.668 -2.205,1.182 -4.839,1.565 -7.325,2.331 -2.86,-0.869 2.486,-0.766 0,0 z"
   id="path425" />
	<path
   style="fill:#ffffff"
   d="m 256.071,165.426 c 34.309,0.962 62.49,23.731 68.529,57.651 1.029,5.78 1.395,11.688 1.853,17.555 0.193,2.467 -1.205,4.811 -3.867,4.844 -2.75,0.033 -3.987,-2.269 -4.167,-4.734 -0.353,-4.882 -0.598,-9.787 -1.271,-14.627 -3.551,-25.559 -23.931,-46.704 -49.371,-51.241 -3.829,-0.683 -7.745,-0.862 -11.624,-1.269 -2.451,-0.257 -5.661,-0.405 -6.204,-3.453 -0.455,-2.555 1.701,-4.589 4.134,-4.72 0.659,-0.039 1.324,-0.008 1.988,-0.006 34.311,0.962 -0.664,-0.002 0,0 z"
   id="path427" />
	<path
   style="fill:#ffffff"
   d="m 308.212,233.019 c -0.057,0.429 -0.086,1.436 -0.338,2.384 -0.91,3.444 -6.134,3.875 -7.335,0.4 -0.357,-1.031 -0.41,-2.205 -0.412,-3.315 -0.012,-7.266 -1.591,-14.526 -5.256,-20.849 -3.767,-6.499 -9.523,-11.96 -16.272,-15.267 -4.082,-1.998 -8.495,-3.241 -12.969,-3.98 -1.955,-0.324 -3.931,-0.519 -5.896,-0.793 -2.381,-0.331 -3.653,-1.848 -3.539,-4.194 0.105,-2.198 1.712,-3.781 4.108,-3.644 7.873,0.446 15.479,2.15 22.48,5.856 14.234,7.539 22.366,19.437 24.74,35.326 0.107,0.721 0.279,1.433 0.334,2.155 0.134,1.782 0.219,3.567 0.355,5.921 -0.057,0.427 -0.136,-2.354 0,0 z"
   id="path429" />
	<path
   style="fill:#ffffff"
   d="m 286.872,232.188 c -2.87,0.052 -4.406,-1.538 -4.703,-4.168 -0.205,-1.834 -0.369,-3.694 -0.807,-5.48 -0.862,-3.517 -2.731,-6.775 -5.689,-8.93 -1.396,-1.017 -2.979,-1.758 -4.636,-2.238 -2.105,-0.609 -4.293,-0.441 -6.392,-0.955 -2.281,-0.559 -3.543,-2.407 -3.184,-4.546 0.326,-1.948 2.22,-3.468 4.349,-3.313 13.302,0.96 22.809,7.837 24.166,23.497 0.097,1.105 0.209,2.272 -0.036,3.331 -0.422,1.807 -1.762,2.714 -3.068,2.802 -2.871,0.051 1.306,-0.088 0,0 z"
   id="path431" />
</g>
<path
   style="fill:#d1d1d1;stroke-width:0.0375"
   d="m 14.678513,6.74715 -0.0031,-0.012675 C 14.531588,6.1531875 14.104913,5.5481625 13.570688,5.0878125 l -0.722213,0.64005 c 0.42945,0.3421875 0.7974,0.816225 0.90195,1.22925 0.28575,1.3090125 0.28575,2.63595 0,3.9449995 -0.171263,0.676538 -1.049325,1.517588 -1.746937,1.672988 -0.913313,0.1737 -1.8339,0.247912 -2.7535505,0.22245 -0.0183,-5.25e-4 -0.035887,0.0066 -0.0486,0.01973 C 9.0708,12.951225 8.345025,13.69635 8.345025,13.69635 l -0.9108,0.9348 c -0.0666,0.06945 -0.1836,0.02224 -0.1836,-0.07365 v -1.9176 c 0,-0.03169 -0.022613,-0.05858 -0.053738,-0.06473 -1.875e-4,0 -3.375e-4,-7.5e-5 -5.25e-4,-7.5e-5 -0.3964875,-0.08831 -0.85095,-0.398175 -1.20105,-0.773287 L 5.281687,12.43417 c 0.4456875,0.484837 1.020525,0.876788 1.5813,1.036913 v 1.15755 c 0,0.418987 0.5105625,0.62475 0.8008875,0.322387 L 8.836687,13.731932 c 0.2544,0.01421 0.5088375,0.02216 0.76335,0.02216 0.864638,0 1.729688,-0.08179 2.588363,-0.245587 l 0.01196,-0.0024 c 1.062,-0.231487 2.218425,-1.344187 2.474925,-2.381175 l 0.0031,-0.01267 c 0.317138,-1.4482875 0.317138,-2.9168625 7.6e-5,-4.365075 z"
   id="path435" />
<path
   style="fill:#ffffff;stroke-width:0.0375"
   d="m 11.117625,11.787262 c 0.09323,-0.02872 -0.10725,-0.03259 0,0 z"
   id="path437" />
<path
   style="fill:#d1d1d1;stroke-width:0.0375"
   d="M 11.922038,10.5624 C 11.7813,10.438462 11.629312,10.332075 11.476762,10.223325 11.321287,10.112513 11.164913,10.002938 11.00355,9.9007875 10.842263,9.7987125 10.6509,9.800325 10.501125,9.9227625 10.3479,10.04805 10.277137,10.2879 10.058475,10.313438 9.9279375,10.328625 9.814125,10.273725 9.7008,10.226625 9.2650875,10.04535 8.9344875,9.76815 8.684625,9.4181625 l -0.531,0.470625 c 0.018038,0.020888 0.03525,0.042338 0.053588,0.062963 0.717075,0.8070385 1.6223625,1.3335365 2.605949,1.7416495 0.09491,0.03937 0.197175,0.06128 0.304425,0.09379 -0.10725,-0.03259 0.0933,-0.02869 0,0 0.0933,-0.02869 0.192,-0.04312 0.274763,-0.08745 0.292912,-0.157349 0.495901,-0.403798 0.635401,-0.700049 0.07628,-0.1617 0.02966,-0.318074 -0.105713,-0.437287 z"
   id="path439" />
<g
   id="g445"
   transform="scale(0.0375)">
	<path
   style="fill:#ffffff"
   d="m 256.159,165.431 c -0.029,0 -0.057,-0.003 -0.086,-0.003 -0.028,-0.002 0.008,0 0.086,0.003 z"
   id="path441" />
	<path
   style="fill:#ffffff"
   d="m 256.072,165.426 c 0.029,0 0.057,0.003 0.086,0.003 1.904,0.068 32.872,0.921 -0.086,-0.003 z"
   id="path443" />
</g>
<g
   id="g451"
   transform="scale(0.0375)">
	<path
   style="fill:#d1d1d1"
   d="m 305.285,185.837 -6.037,5.351 c 9.487,9.23 16.029,21.463 17.899,34.925 0.672,4.842 0.919,9.745 1.272,14.627 0.179,2.467 1.415,4.768 4.167,4.736 2.663,-0.033 4.06,-2.376 3.867,-4.844 -0.459,-5.866 -0.824,-11.776 -1.853,-17.555 -2.643,-14.848 -9.53,-27.559 -19.315,-37.24 z"
   id="path447" />
	<path
   style="fill:#d1d1d1"
   d="m 307.521,224.939 c -1.729,-11.578 -6.532,-21.026 -14.51,-28.224 l -6.02,5.335 c 3.113,2.763 5.806,6.008 7.88,9.587 3.665,6.323 5.244,13.583 5.256,20.849 0.002,1.11 0.055,2.284 0.412,3.317 1.203,3.477 6.425,3.046 7.335,-0.4 0.252,-0.95 0.281,-1.957 0.338,-2.384 -0.057,0.429 -0.138,-2.353 0,0 -0.138,-2.353 -0.222,-4.139 -0.357,-5.923 -0.053,-0.725 -0.226,-1.437 -0.334,-2.157 z"
   id="path449" />
</g>
<g
   id="g461"
   transform="scale(0.0375)">
	<path
   style="fill:#ffffff"
   d="m 308.212,233.019 c -0.136,-2.354 -0.057,0.427 0,0 z"
   id="path453" />
	<path
   style="fill:#ffffff"
   d="m 286.872,232.188 c 0.045,-0.003 0.088,-0.026 0.131,-0.031 -0.121,0 -0.307,0.003 -0.498,0.01 0.124,0.003 0.237,0.022 0.367,0.021 z"
   id="path455" />
	<path
   style="fill:#ffffff"
   d="m 286.872,232.188 c -0.129,0.002 -0.243,-0.017 -0.367,-0.021 -0.621,0.017 -1.262,0.05 0.367,0.021 z"
   id="path457" />
	<path
   style="fill:#ffffff"
   d="m 287.003,232.157 c -0.045,0.005 -0.088,0.028 -0.131,0.031 0.336,-0.023 0.307,-0.031 0.131,-0.031 z"
   id="path459" />
</g>
<path
   style="fill:#d1d1d1;stroke-width:0.0375"
   d="m 10.530525,7.7821875 -0.2298,0.2037 c 0.01267,0.00769 0.02509,0.015713 0.03712,0.02445 0.110925,0.080813 0.181013,0.2029875 0.213338,0.334875 0.01642,0.066975 0.0225,0.13665 0.03026,0.2055 0.01061,0.094238 0.06412,0.152175 0.1626,0.15555 0.0072,-1.875e-4 0.01421,-3.375e-4 0.01867,-3.75e-4 0.0474,-0.00525 0.09491,-0.038475 0.1101,-0.104025 0.0092,-0.039637 0.005,-0.083475 0.0013,-0.1249125 -0.02858,-0.3283125 -0.1527,-0.553575 -0.34365,-0.6947625 z"
   id="path463" />
</svg>
